<svg xmlns="http://www.w3.org/2000/svg" width="200" height="48" viewBox="0 0 200 48" fill="none"><g clip-path="url(#clip0_198_328)"><path d="M32.152 0.840942C32.5772 0.840942 32.9627 1.0904 33.3879 1.11875C33.9379 1.15844 34.5559 1.29451 34.879 1.78776C35.2249 2.33204 35.7691 2.78561 35.8542 3.46029C36.0016 5.07045 35.6898 6.68061 35.2022 8.21139C34.8677 9.28861 34.3688 10.3035 34.0513 11.3864C33.9549 11.7095 33.9492 12.044 33.9379 12.3785C36.3078 12.3785 38.6776 12.3785 41.0475 12.3785C42.0624 12.3785 43.0772 12.3955 44.0864 12.3388C44.5457 12.2821 44.9879 12.0894 45.4641 12.1234C46.0991 12.1631 46.7568 12.027 47.3691 12.2425C49.0189 12.7471 50.6688 13.2346 52.3243 13.7279C52.7835 13.864 53.2598 13.9717 53.6793 14.2155C54.7282 14.8221 55.7771 15.4231 56.7863 16.0921C57.1661 16.3529 57.5687 16.6024 57.8748 16.9539C58.0449 17.1126 57.9429 17.3621 57.9202 17.5605C57.7898 18.3146 57.2172 18.8815 56.6275 19.3181C55.5049 20.1515 54.2179 20.7185 52.9366 21.2457C52.5568 21.4328 52.1315 21.2911 51.7347 21.2344C50.4987 21.0246 49.2627 20.8092 48.0211 20.6108C47.3521 20.5144 46.7681 20.1572 46.1501 19.9021C45.7079 19.698 45.2033 19.749 44.7327 19.7093C43.7746 19.6413 42.8164 19.6186 41.8639 19.5335C41.0589 19.3805 40.2368 19.5109 39.4317 19.5505C38.5416 19.6016 37.6911 19.868 36.8123 19.9928C35.582 20.0438 34.3517 19.9928 33.1215 20.0154C32.7076 20.0154 32.3957 20.3216 32.1293 20.6051C30.8763 22.0225 30.23 23.8311 29.2718 25.4299C29.4646 25.702 29.6857 25.9685 29.9975 26.1102C30.5418 26.371 31.1541 26.4447 31.7437 26.5298C32.0839 26.5525 32.5318 26.6489 32.7643 26.3144C33.2235 25.6794 33.1555 24.8176 33.558 24.1542C33.6884 23.9048 33.9946 23.8878 34.2384 23.8197C36.0866 23.4285 37.8385 22.5668 39.7605 22.5554C42.618 22.5668 45.5435 22.5838 48.2762 23.5022C48.8602 23.7063 49.5916 24.0352 49.6709 24.7325C49.6596 25.566 49.722 26.4107 49.5292 27.2272C49.0813 28.191 48.4577 29.0698 47.6979 29.8125C47.0176 30.4872 46.5583 31.3433 46.0991 32.1767C45.844 32.6586 45.4358 33.0271 45.0332 33.3843C45.7306 33.9796 46.564 34.3708 47.3408 34.8471C47.8794 35.1816 48.4803 35.38 49.0643 35.6125C50.9523 36.3495 52.8572 37.0355 54.7622 37.7385C55.6013 38.0447 56.4404 38.4359 57.3589 38.4302C60.3694 38.4302 63.38 38.4302 66.3905 38.4302C66.8498 38.4302 67.3033 38.3282 67.7569 38.2545C68.3749 38.1581 68.9305 37.8519 69.4975 37.5968C69.9397 37.3984 70.3422 37.0695 70.8468 37.0639C70.569 37.2963 70.2742 37.5118 70.0247 37.7726C70.3706 37.5514 70.6937 37.2963 71.0679 37.1149C70.9659 37.3644 70.8355 37.5968 70.6711 37.8066C71.0509 37.5911 71.4421 37.3984 71.7936 37.1376C72.1338 36.8881 72.5477 36.7917 72.9616 36.7407C72.4003 37.4211 71.5669 37.8009 71.0339 38.5039C71.272 38.3452 71.5045 38.1694 71.7256 37.9823C71.7199 38.0447 71.7029 38.1694 71.6973 38.2318C72.3606 37.7102 73.0353 37.1943 73.7837 36.7861C73.4888 37.2566 73.092 37.6478 72.6724 38.0107C71.9581 38.6513 71.3798 39.4281 70.7731 40.1651C70.5463 40.4259 70.3876 40.7321 70.2628 41.0496C70.2912 41.1176 70.3195 41.1856 70.3479 41.2537C70.2402 41.3387 70.1324 41.4294 70.0304 41.5202C70.0871 41.5428 70.1948 41.5939 70.2515 41.6222C69.9624 42.2005 69.4805 42.6484 69.2367 43.2494C69.1403 43.5045 68.8795 43.6122 68.664 43.737C68.7491 43.7596 68.9248 43.8107 69.0155 43.8333C68.8455 43.8503 68.6754 43.873 68.5053 43.8957C68.2955 44.3549 67.91 44.6951 67.5528 45.041C67.4111 45.194 67.2069 45.2507 67.0142 45.3074C66.9802 45.3811 66.9518 45.4548 66.9178 45.5285C66.5946 45.7497 66.3395 46.0558 66.0277 46.2883C64.786 46.8042 63.3176 46.3109 62.1213 46.997C61.9342 47.1104 61.7245 47.1444 61.509 47.1047C60.4148 46.98 59.3829 46.5547 58.4078 46.0558C57.5687 45.6193 56.8826 44.9276 55.9812 44.6101C55.573 44.4343 55.1874 44.2302 54.7736 44.0828C54.2123 43.8844 53.685 43.5782 53.0954 43.4705C52.381 43.3401 51.6836 43.0963 51.0657 42.7221C50.4023 42.2969 49.5802 42.2288 48.8885 41.8547C48.1969 41.4805 47.4825 41.1346 46.8418 40.6811C46.1842 40.2332 45.5548 39.7512 44.8972 39.309C44.489 39.0369 44.1148 38.6797 43.6272 38.555C42.9355 38.3395 42.1758 38.4246 41.5351 38.7534C40.8037 39.1219 40.1631 39.6435 39.5564 40.1935C38.4962 41.1856 37.1072 41.6846 35.7918 42.2345C35.1625 42.45 34.5842 42.8128 33.9209 42.9375C33.2632 43.0396 32.5998 43.1757 31.9308 43.0963C30.7516 43.1417 29.5553 42.9886 28.4384 42.5974C27.2364 42.2289 26.0685 41.5825 25.3428 40.528C24.9743 39.961 24.4867 39.4451 24.3903 38.7477C24.9686 39.5698 25.717 40.2558 26.5447 40.8171C26.8282 40.9815 27.1571 41.0552 27.4519 41.197C27.8147 41.3727 28.1436 41.6109 28.4894 41.815C28.6425 41.781 28.8012 41.7469 28.96 41.7129C29.2435 42.1098 29.7651 41.8376 30.1619 41.8547C30.4397 42.0077 30.7232 41.8547 31.0067 41.8036C31.3072 41.8036 31.5963 41.9057 31.8855 41.9737C31.9025 41.9 31.9308 41.7469 31.9478 41.6732C32.1179 41.6052 32.288 41.5428 32.4581 41.4748C31.8288 41.6222 31.1995 41.7866 30.5475 41.7413C29.045 41.8206 27.5823 41.1913 26.4087 40.2955C25.9608 39.7966 25.4392 39.3204 25.1784 38.6854C26.1082 39.5812 27.3101 40.2899 28.6368 40.2842C28.308 39.9837 27.8544 39.9327 27.4462 39.7909C26.1309 39.3544 25.099 38.3282 24.3279 37.2056C23.9878 36.5706 23.7553 35.8733 23.6249 35.1646C23.9197 35.6295 24.1635 36.1227 24.532 36.5366C25.014 37.1092 25.6433 37.5514 26.3236 37.8519C26.1309 37.1716 25.4789 36.7974 25.184 36.1794C25.2237 36.1341 25.2974 36.049 25.3371 36.0037C25.4959 36.1908 25.6603 36.3778 25.8247 36.5649C25.8871 36.5536 26.0118 36.5309 26.0798 36.5196C26.2613 36.684 26.4427 36.8484 26.6241 37.0128C26.6922 37.0128 26.7659 37.0128 26.8339 37.0072C26.8792 37.0752 26.9246 37.1489 26.9756 37.2226C27.4462 37.2056 27.8374 37.4948 28.2796 37.5968C29.1017 37.8123 29.9692 37.7782 30.8083 37.6989C31.7324 37.5571 32.6906 37.4607 33.5183 36.9958C34.6239 36.5423 35.7408 36.0433 36.6082 35.2042C36.9144 34.8981 37.1922 34.4842 37.1412 34.0306C36.9994 33.5827 36.5799 33.3106 36.2227 33.0441C34.3914 31.7798 32.3164 30.9237 30.264 30.0903C29.4589 29.7955 28.6538 29.4213 27.7807 29.3986C27.4008 29.3589 27.1287 29.6594 26.8622 29.8748C25.6319 30.9521 24.3506 31.9669 23.177 33.1065C22.6327 33.5941 22.406 34.3085 22.0431 34.9264C21.6349 35.8619 20.8638 36.5876 20.0304 37.1489C19.3897 37.5855 18.6697 37.886 17.9893 38.2488C17.3317 38.589 16.6853 38.9575 16.0617 39.3544C15.6818 39.5868 15.5911 40.0574 15.3417 40.3976C14.8484 41.0666 14.0944 41.4748 13.3573 41.8263C11.6961 42.603 9.89319 43.0453 8.06759 43.1927C7.07541 43.2664 6.04355 43.221 5.11941 42.8185C3.89478 42.2402 2.94229 41.2027 2.2336 40.0687C1.46253 38.8838 1.04865 37.5174 0.44201 36.2531C0.288931 35.8903 0.0564784 35.5558 0.0224609 35.1589C0.0224609 34.9038 0.30594 34.8981 0.493036 34.9038C1.84806 34.9661 3.20876 35.0342 4.56946 35.0172C6.5198 34.9831 8.47013 34.762 10.3694 34.3141C11.2085 34.1157 12.0136 33.8039 12.7847 33.4183C13.8052 33.0101 14.735 32.4148 15.7158 31.9216C16.8214 31.3659 17.8703 30.7083 18.8965 30.0279C20.3536 29.0924 21.7596 28.0662 23.0013 26.853C23.9027 25.9855 24.7021 24.999 25.2918 23.8934C25.6263 23.2641 25.8077 22.5668 25.836 21.8581C25.116 21.8751 24.4016 21.9828 23.727 22.2379C22.6044 22.6688 21.3684 22.7085 20.1835 22.5611C19.6505 22.4704 19.0212 22.3343 18.7264 21.8297C18.4089 21.2231 18.3522 20.5257 18.3068 19.8567C18.2388 18.7738 18.3182 17.5832 19.0212 16.6987C19.6505 15.9447 20.5066 15.4118 21.4081 15.0376C22.5307 14.5897 23.71 14.2948 24.9006 14.1021C26.335 13.8413 27.8034 13.5068 29.062 12.7357C29.2888 12.6053 29.3682 12.3388 29.4646 12.1121C29.7084 11.4544 29.9748 10.791 30.0712 10.0937C30.1393 9.74218 29.9465 9.41334 29.9125 9.07317C29.8558 8.59125 29.9408 8.07532 29.7027 7.62743C29.4249 7.03779 29.0507 6.38579 29.3285 5.72245C28.9146 5.26321 28.7899 4.61121 28.8069 4.01024C28.9827 3.13145 29.6517 2.46244 30.3264 1.92383C30.8763 1.50428 31.4886 1.10741 32.152 0.840942ZM40.9908 15.5818C41.5918 15.6612 42.1928 15.5535 42.7881 15.5818C43.355 15.5989 43.939 15.5648 44.4663 15.8086C44.6817 15.6159 44.9652 15.5478 45.2487 15.5195C44.9992 15.4628 44.7441 15.4174 44.489 15.3721C44.6817 15.27 44.8745 15.168 45.0672 15.0546C44.4096 15.0149 43.7519 15.0262 43.0942 15.0262C43.0262 14.9695 42.9638 14.9185 42.8958 14.8675C42.3402 15.3154 41.5691 15.1906 40.9852 15.5875L40.9908 15.5818ZM43.372 16.0071C43.219 16.1375 43.4571 16.3189 43.5705 16.1771C43.7236 16.0467 43.4854 15.8653 43.372 16.0071ZM39.8399 16.1715L39.9079 16.3246C40.0327 16.2905 40.1631 16.2565 40.2935 16.2452C40.4806 16.3075 40.6507 16.4209 40.8491 16.4606C41.0929 16.4776 41.3253 16.3813 41.5521 16.3132C42.1247 16.4436 42.7314 16.3699 43.27 16.1488C42.1418 15.905 40.9738 16.0694 39.8399 16.1771V16.1715ZM44.5173 16.0864C44.523 16.1488 44.54 16.2792 44.5513 16.3472C44.6874 16.3132 44.8235 16.2849 44.9595 16.2565C44.8121 16.1998 44.6647 16.1431 44.523 16.0921L44.5173 16.0864ZM43.8596 16.2565C43.9447 16.3359 44.1885 16.3132 44.1998 16.1771C44.1091 16.0978 43.871 16.1205 43.8596 16.2565ZM44.7894 17.1523C44.7044 17.226 44.6704 17.3337 44.6194 17.4301C44.9709 17.5775 45.3337 17.3394 45.5889 17.1126C45.3224 17.1126 45.0502 17.1013 44.7838 17.1523H44.7894ZM40.2594 17.4188C39.5508 17.6115 38.8137 17.5265 38.0937 17.6286C37.7025 17.6569 37.3113 17.5662 36.9201 17.5889C37.2716 17.7249 37.6288 17.8327 37.9973 17.9064C38.4055 17.9801 38.8137 17.8157 39.2219 17.8724C39.3807 17.9687 39.5054 18.1105 39.6358 18.2409C39.8853 18.2182 40.1347 18.1898 40.3898 18.1615C40.2821 18.0708 40.1687 17.9801 40.061 17.8894C39.959 17.9574 39.8626 18.0254 39.7662 18.0935C39.7152 18.0424 39.6131 17.9404 39.5621 17.8894C40.044 17.7873 40.5543 17.5662 41.0362 17.793C40.8718 17.9234 40.7073 18.0481 40.5373 18.1728C41.8243 18.0424 43.1169 17.9687 44.4096 17.8497C44.2792 17.7363 44.1488 17.6286 44.0127 17.5265C44.1601 17.4528 44.4663 17.6456 44.5457 17.4528C44.4606 17.2827 44.2111 17.3394 44.0637 17.2827C42.7994 17.158 41.5294 17.3734 40.2651 17.4188H40.2594ZM38.173 27.0401C37.7478 27.1478 37.2829 27.2555 36.9598 27.5787C36.7557 27.7714 36.7103 28.0662 36.6366 28.327C37.419 28.9224 38.3205 29.3306 39.1539 29.8578C39.426 30.0052 39.6925 30.2547 40.027 30.181C40.4125 30.1413 40.6563 29.7728 40.713 29.4213C40.8207 28.8203 40.9001 28.2023 40.8491 27.5957C40.8264 27.3519 40.747 27.0457 40.4692 26.9834C39.7152 26.7963 38.9214 26.8813 38.173 27.0514V27.0401ZM45.1863 35.5954C45.2203 35.6351 45.2827 35.7145 45.311 35.7542C45.3734 35.7542 45.4414 35.7542 45.5038 35.7599C45.6909 35.8733 45.8837 35.981 46.0764 36.0887C46.1785 36.0263 46.2862 35.9583 46.3883 35.8959C46.0141 35.7088 45.6002 35.6125 45.1806 35.5954H45.1863ZM46.7454 35.7485C46.8588 35.8903 46.9722 36.032 47.0629 36.1908C46.8418 36.1057 46.6207 36.015 46.3996 35.9243C46.9836 36.5196 47.7943 36.7861 48.5257 37.1489C49.3024 37.5231 50.1302 37.7896 50.9012 38.1864C51.4569 38.4586 52.0805 38.5493 52.6191 38.8668C53.2484 39.224 53.9798 39.3544 54.5695 39.7796C54.5695 39.6549 54.5695 39.5358 54.5695 39.4111C54.0082 39.1729 53.4355 38.9518 52.8743 38.7137C52.6645 38.6343 52.5227 38.4529 52.3753 38.2942C52.3867 38.2488 52.4037 38.1638 52.415 38.1241C52.0805 37.988 51.746 37.8463 51.4002 37.7272C51.5419 37.9937 51.7857 38.1411 52.0919 38.1354C52.1429 38.2148 52.1939 38.2942 52.2449 38.3792C51.6723 38.1808 51.026 38.0844 50.5724 37.6478C50.7879 37.6365 51.0033 37.6252 51.2187 37.6195C49.722 37.0128 48.2479 36.3552 46.7568 35.7485H46.7454ZM45.6739 36.6557C45.6569 36.8031 45.878 36.9618 46.0254 36.9221C46.0594 36.7634 45.8156 36.6273 45.6739 36.6557ZM44.9709 36.9902C45.226 37.1943 45.4981 37.3757 45.7873 37.5401C45.5322 37.5004 45.2714 37.4721 45.0162 37.4437C45.6399 37.8009 46.3032 38.0957 46.9496 38.4189C47.1537 38.3339 47.3634 38.2601 47.5789 38.1978C47.0062 37.937 46.428 37.6705 45.9687 37.2283C45.6172 37.2623 45.2884 37.1376 44.9765 36.9902H44.9709ZM46.2012 36.9902C46.4166 37.1999 46.7058 37.2906 47.0062 37.285C46.7568 37.1432 46.4846 37.0412 46.2012 36.9902ZM47.0346 37.4891C46.9382 37.6705 47.3294 37.7612 47.3521 37.5741C47.3237 37.4437 47.1253 37.3984 47.0346 37.4891ZM47.4371 37.6138C48.1118 38.1468 48.9226 38.4586 49.6993 38.8158C50.2606 39.0482 50.8049 39.3317 51.3945 39.4904L51.2528 39.326C51.0203 39.275 50.7708 39.2126 50.6234 39.0142C50.3343 38.657 49.8694 38.555 49.4442 38.4586C48.8489 38.039 48.1458 37.7896 47.4428 37.6195L47.4371 37.6138ZM26.6581 37.8519C26.5731 37.9313 26.6071 38.1184 26.7318 38.1411C26.9133 38.1241 26.8282 37.7612 26.6581 37.8519ZM47.8453 38.3622C48.1118 38.7364 48.3783 39.1163 48.7071 39.4394C48.9963 39.7342 49.4045 39.859 49.7617 40.0404C50.374 40.3182 50.9523 40.664 51.5816 40.9135C50.7198 40.3069 49.7163 39.9327 48.8659 39.3033C49.6426 39.4111 50.3003 39.8703 51.043 40.0744C50.8672 39.8646 50.6518 39.6889 50.3967 39.5868C49.8751 39.3657 49.4045 39.0255 48.8772 38.8158C48.5314 38.674 48.1855 38.5153 47.8453 38.3565V38.3622ZM51.0657 40.0971C51.4569 40.3352 51.8934 40.4996 52.347 40.562C52.4037 40.6357 52.4604 40.7151 52.5171 40.7888C53.3165 40.9986 54.0309 41.4294 54.7962 41.7413C55.0174 41.8206 55.2045 42.0588 55.4596 41.9794C54.9153 41.7129 54.4164 41.3557 53.8551 41.1233C53.4526 40.9929 53.1237 40.7207 52.7268 40.5847C52.2336 40.4656 51.7914 40.2162 51.3548 39.9497C51.2584 39.995 51.1564 40.0461 51.06 40.0971H51.0657ZM52.2449 39.893C52.4434 40.0631 52.6645 40.2105 52.8913 40.3352C52.7098 40.1424 52.4887 39.9894 52.2449 39.893ZM28.9316 40.2048C28.8409 40.3182 29.0223 40.5166 29.1414 40.4203C29.2321 40.3012 29.0507 40.1028 28.9316 40.2048ZM53.9288 40.7548C54.2179 40.9135 54.5184 41.0382 54.8246 41.163C54.7962 41.0949 54.7395 40.9645 54.7112 40.9022C54.4504 40.8398 54.1896 40.7888 53.9231 40.7548H53.9288ZM52.4547 41.2537C52.6985 41.6109 53.1407 41.6789 53.5093 41.849C53.8211 41.9851 54.1272 42.1438 54.4617 42.2175C54.2179 42.0191 53.9345 41.8943 53.6453 41.7866C53.2371 41.6335 52.8572 41.4124 52.4547 41.248V41.2537ZM55.4766 41.2934C55.6864 41.5712 56.0152 41.7016 56.3384 41.7923C56.0832 41.5769 55.7998 41.3841 55.4766 41.2934ZM55.4539 42.1041C55.7941 42.2969 56.1399 42.4783 56.4914 42.6484C56.4177 42.1835 55.8621 42.0191 55.4539 42.1041ZM55.1761 42.5407C55.5333 42.8355 55.9755 42.9829 56.4007 43.153C56.0209 42.8922 55.6183 42.6711 55.1761 42.5407Z" fill="white"></path><path d="M43.7124 15.1453C43.9562 15.1963 44.1886 15.2813 44.3984 15.4117C44.1376 15.4117 43.8882 15.338 43.7124 15.1453Z" fill="white"></path><path d="M43.1621 17.7023C43.2301 17.4245 43.542 17.5095 43.7461 17.5492C43.6724 17.6456 43.6043 17.7476 43.5306 17.844C43.4059 17.793 43.2812 17.7476 43.1621 17.7023Z" fill="white"></path><path d="M41.3312 17.5889C41.9038 17.6115 42.4821 17.5832 43.0547 17.6399C43.0547 17.6569 43.0434 17.6966 43.0377 17.7136C42.4198 17.7703 41.8131 17.9347 41.1895 17.9461C41.2348 17.827 41.2858 17.7079 41.3312 17.5889Z" fill="white"></path><path d="M24.8895 35.5387C24.9972 35.6748 25.1049 35.8165 25.207 35.9526C25.1729 36.0149 25.0992 36.1397 25.0595 36.202C24.9972 35.9809 24.9348 35.7598 24.8838 35.5387H24.8895Z" fill="white"></path><path d="M47.4033 36.3041C47.7095 36.2077 47.9646 36.3778 48.163 36.5933C47.8626 36.6556 47.6074 36.5082 47.4033 36.3041Z" fill="white"></path><path d="M48.106 36.599C48.8884 36.8485 49.6821 37.0979 50.4248 37.4608C50.3341 37.5231 50.2434 37.5798 50.1527 37.6422C49.4723 37.2907 48.775 36.9789 48.106 36.599Z" fill="white"></path><path d="M45.9233 37.5798C46.1898 37.6876 46.4166 37.869 46.581 38.1014C46.3259 37.971 46.1048 37.7953 45.9233 37.5798Z" fill="white"></path><path d="M73.7779 13.7109C73.7779 10.7344 71.3911 8.32483 68.4485 8.32483C65.506 8.32483 63.1191 10.7401 63.1191 13.7109C63.1191 16.6818 65.506 19.097 68.4485 19.097C71.3911 19.097 73.7779 16.6875 73.7779 13.7109Z" fill="#901917"></path><path d="M71.6747 13.0816C71.2495 14.1985 70.983 15.3494 70.8526 16.54C70.8186 16.8575 70.6939 17.1807 70.5635 17.4755C70.382 17.9007 69.9908 17.9574 69.7527 17.5719C69.4862 17.1466 69.3218 16.6534 69.1177 16.1828C69.0043 15.9163 68.9306 15.6215 68.7889 15.3664C68.6018 15.0319 68.3126 15.0319 68.1256 15.3664C67.9781 15.6215 67.8931 15.905 67.7854 16.1771C67.6266 16.5854 67.4679 16.9936 67.2978 17.3904C67.2524 17.4868 67.1787 17.5775 67.0994 17.6512C66.8612 17.8837 66.5437 17.8667 66.4133 17.5719C66.2376 17.1466 66.0505 16.7044 66.0108 16.2509C65.7783 14.8278 65.6423 14.1815 65.2681 13.1893C65.013 12.5203 64.9676 11.8286 65.1377 11.1256C65.3418 10.2865 65.9428 9.86691 66.7875 9.97463C67.1957 10.0313 67.5983 10.1447 68.0008 10.1447C69.1347 10.2411 69.8037 9.95762 70.6372 9.99164C71.1928 10.0427 71.5273 10.4055 71.6917 10.9101C71.7994 11.2446 71.9695 12.2821 71.6634 13.0702L71.6747 13.0816Z" fill="white"></path><path d="M70.4782 13.6316C70.4782 13.813 70.3931 13.9094 70.2287 13.9264C70.0473 13.9264 69.8715 13.9377 69.7071 13.9661C69.2649 14.0228 68.8907 14.0908 68.5789 14.1759C68.267 14.2496 68.1083 14.2892 68.1083 14.3006C68.0176 14.5671 67.8758 14.7938 67.6944 14.9753C67.513 15.1567 67.4109 15.2587 67.3939 15.2701C66.9914 15.4402 66.7589 15.5025 66.7079 15.4572C66.6342 15.4005 66.6795 15.2984 66.844 15.1397C66.9177 15.015 66.98 14.9583 67.0367 14.9696C67.0764 14.9866 67.0991 14.9979 67.1161 15.015C67.1898 14.9696 67.2749 14.8789 67.3656 14.7428C67.4393 14.6011 67.4846 14.5274 67.5016 14.5104C67.3542 14.55 67.2238 14.5954 67.1161 14.6351C67.0084 14.6748 66.9517 14.7031 66.9517 14.7201C66.8043 14.7598 66.6682 14.7485 66.5378 14.6804C66.4301 14.6124 66.345 14.5557 66.2883 14.5104C66.1239 14.3403 66.0842 14.2269 66.1806 14.1702C66.2543 14.1305 66.345 14.1022 66.4584 14.0851C66.6625 14.0455 66.878 13.9718 67.1161 13.8754C67.3542 13.762 67.6094 13.6089 67.8872 13.4161C67.9212 13.3424 67.9042 13.3141 67.8305 13.3311C67.7568 13.3424 67.6661 13.3991 67.5527 13.5012C67.4053 13.5862 67.2692 13.6202 67.1388 13.6089C67.0084 13.5919 66.912 13.5295 66.8383 13.4218C66.8043 13.2517 66.8099 13.1327 66.8666 13.0646C66.9007 12.9796 66.9687 12.9456 67.0594 12.9569C67.1161 12.9002 67.1898 12.8378 67.2805 12.7641C67.3712 12.6961 67.4279 12.6621 67.4449 12.6621C67.3372 12.4807 67.2522 12.2539 67.1955 11.9874C67.1388 11.7209 67.1104 11.5792 67.1104 11.5679C66.929 11.3127 66.9177 11.1653 67.0821 11.1256C67.2635 11.0859 67.53 11.12 67.8815 11.2333C68.1196 11.3184 68.2217 11.4148 68.182 11.5282C68.1423 11.6416 68.1366 11.7663 68.1536 11.908C68.1933 11.908 68.2103 11.8797 68.2103 11.823C68.2103 11.7663 68.267 11.7379 68.3747 11.7379C68.4314 11.6642 68.4655 11.5962 68.4825 11.5282L68.5392 11.4431C68.301 11.4318 68.1423 11.3581 68.0743 11.2333C67.9835 11.0916 68.0459 11.0236 68.267 11.0236C68.5222 10.9952 68.7149 10.9555 68.8453 10.8988C68.9927 10.8308 69.1855 10.8421 69.4236 10.9442C69.7014 11.0406 69.8262 11.154 69.8092 11.2787C69.7695 11.3921 69.7014 11.4771 69.588 11.5338C69.5313 11.5622 69.469 11.6132 69.3953 11.6812C69.3046 11.7663 69.2592 11.8173 69.2592 11.8287C69.3896 11.9534 69.4066 12.0611 69.3159 12.1461C69.2252 12.2142 69.0778 12.2369 68.8793 12.2085C68.6582 12.2369 68.4938 12.2652 68.3861 12.2936C68.2784 12.3106 68.182 12.3503 68.1139 12.424C68.1139 12.4807 68.1423 12.492 68.1933 12.4636C68.25 12.4353 68.3124 12.5033 68.3861 12.6734C68.6412 12.56 68.8623 12.4863 69.0438 12.441C69.2082 12.4126 69.3726 12.458 69.537 12.5884C69.6674 12.7018 69.6107 12.8435 69.3726 13.0079C69.1345 13.178 68.8793 13.3311 68.6015 13.4728C68.6356 13.5012 68.783 13.4898 69.0438 13.4331C69.2989 13.3764 69.5597 13.3197 69.8148 13.2631C69.9055 13.2347 70.0246 13.2631 70.172 13.3481C70.3194 13.4331 70.4215 13.5295 70.4725 13.6429L70.4782 13.6316ZM68.0006 12.7868C67.8702 12.7868 67.7624 12.8038 67.6717 12.8322C67.581 12.8435 67.5243 12.8322 67.5073 12.7868C67.4166 12.8322 67.3486 12.8662 67.3145 12.8945C67.2805 12.9229 67.2692 12.9456 67.2862 12.9569C67.4336 12.9399 67.581 12.9172 67.7284 12.8719C67.8928 12.8152 67.9835 12.7868 68.0062 12.7868H68.0006ZM68.4428 12.9966C68.3861 12.9966 68.3521 13.0193 68.3294 13.0589C68.3124 13.0873 68.3124 13.11 68.3294 13.1213C68.3691 13.093 68.3918 13.0646 68.4144 13.0363L68.4428 12.9966ZM70.2004 14.9356C70.3478 15.2871 70.3137 15.4912 70.0926 15.5479C69.8715 15.6216 69.7071 15.5706 69.5994 15.4005C69.4917 15.2587 69.418 15.1227 69.3783 14.9753C69.3216 14.8335 69.3046 14.7655 69.3216 14.7655C69.2649 14.5274 69.3386 14.431 69.5427 14.4707C69.7468 14.516 69.9622 14.6691 70.2004 14.9356Z" fill="#901917"></path><path d="M84.0682 15.5478V18.7228H90.0326V21.79H84.0682V27.7771H80.3887V12.3672H90.5315V15.5422H84.0682V15.5478Z" fill="white"></path><path d="M101.174 27.7771L97.8455 21.6596H96.5812V27.7771H92.9243V12.3672H98.798C101.758 12.3672 104.694 13.5011 104.694 17.0219C104.694 19.0913 103.475 20.5711 101.497 21.1777L105.522 27.7714H101.168L101.174 27.7771ZM98.5429 15.3721H96.5642V18.9609H98.3274C99.5237 18.9609 101.026 18.6547 101.026 17.0899C101.026 15.6555 99.6541 15.3721 98.5429 15.3721Z" fill="white"></path><path d="M107.353 27.7771V12.3672H111.095V27.7771H107.353Z" fill="white"></path><path d="M114.27 27.7771V12.3672H124.628V15.5251H117.859V18.4166H124.254V21.3988H117.859V24.5965H125.02V27.7714H114.27V27.7771Z" fill="white"></path><path d="M137.272 27.7771L131.069 17.7023H131.001L131.086 27.7771H127.475V12.3672H131.721L137.901 22.4193H137.969L137.884 12.3672H141.495V27.7771H137.272Z" fill="white"></path><path d="M150.414 27.7771H144.67V12.3672H150.244C154.615 12.3672 159.06 14.1928 159.06 20.0268C159.06 25.4469 154.666 27.7714 150.419 27.7714L150.414 27.7771ZM150.153 15.5478H148.305V24.5568H150.068C152.721 24.5568 155.182 23.4682 155.182 20.0325C155.182 16.5967 152.721 15.5478 150.153 15.5478Z" fill="white"></path><path d="M161.509 27.7771V12.3672H165.251V24.5341H171.215V27.7771H161.509Z" fill="white"></path><path d="M178.767 21.2514V27.7827H175.048V21.2514L169.259 12.3728H173.767L177.055 18.0764L180.343 12.3728H184.692L178.773 21.2514H178.767Z" fill="white"></path><path d="M83.8644 43.2948H79.9014V32.6643H83.7453C86.7616 32.6643 89.8231 33.923 89.8231 37.9483C89.8231 41.6846 86.7899 43.2948 83.8644 43.2948ZM83.683 34.8584H82.4073V41.0723H83.6206C85.4519 41.0723 87.1471 40.3239 87.1471 37.9483C87.1471 35.5728 85.4519 34.8584 83.6773 34.8584H83.683Z" fill="white"></path><path d="M91.5127 43.2948V32.6643H98.6564V34.8414H93.9903V36.8371H98.4012V38.8952H93.9903V41.1006H98.9285V43.2948H91.5127Z" fill="white"></path><path d="M107.376 43.2948L103.096 36.3439H103.05L103.113 43.2948H100.618V32.6643H103.544L107.807 39.5982H107.853L107.79 32.6643H110.285V43.2948H107.371H107.376Z" fill="white"></path><path d="M117.02 34.8584V43.2948H114.452V34.8584H111.447V32.6643H120.019V34.8584H117.014H117.02Z" fill="white"></path><path d="M127.497 43.2948L126.67 41.2084H122.559L121.777 43.2948H118.987L123.444 32.6643H125.938L130.349 43.2948H127.497ZM124.646 35.5048L123.296 39.1503H125.967L124.646 35.5048Z" fill="white"></path><path d="M131.228 43.2948V32.6643H133.813V41.0553H137.924V43.2891H131.228V43.2948Z" fill="white"></path><path d="M147.738 43.5839C144.466 43.5839 142.017 41.3047 142.017 37.971C142.017 34.6373 144.54 32.3865 147.783 32.3865C149.268 32.3865 150.873 32.9251 151.763 33.9456L150.023 35.6862C149.541 35.0228 148.685 34.711 147.879 34.711C146.094 34.711 144.818 36.0944 144.818 37.971C144.818 39.8476 146.065 41.2253 147.834 41.2253C148.838 41.2253 149.637 40.7774 150.085 40.1425L151.871 41.8263C150.941 42.9092 149.529 43.5839 147.743 43.5839H147.738Z" fill="white"></path><path d="M152.954 43.2948V32.6643H160.098V34.8414H155.432V36.8371H159.843V38.8952H155.432V41.1006H160.37V43.2948H152.954Z" fill="white"></path><path d="M168.817 43.2948L164.543 36.3439H164.497L164.56 43.2948H162.065V32.6643H164.99L169.254 39.5982H169.299L169.237 32.6643H171.732V43.2948H168.817Z" fill="white"></path><path d="M178.467 34.8584V43.2948H175.898V34.8584H172.894V32.6643H181.466V34.8584H178.461H178.467Z" fill="white"></path><path d="M188.321 43.2948L186.024 39.0766H185.151V43.2948H182.628V32.6643H186.682C188.723 32.6643 190.753 33.4467 190.753 35.879C190.753 37.3077 189.914 38.3282 188.547 38.7478L191.326 43.2948H188.321ZM186.506 34.7394H185.14V37.217H186.353C187.175 37.217 188.213 37.0072 188.213 35.9243C188.213 34.9321 187.266 34.7394 186.501 34.7394H186.506Z" fill="white"></path><path d="M192.584 43.2948V32.6643H199.728V34.8414H195.062V36.8371H199.473V38.8952H195.062V41.1006H200V43.2948H192.584Z" fill="white"></path></g><defs><clipPath id="clip0_198_328"><rect width="200" height="46.2978" fill="white" transform="translate(0 0.840942)"></rect></clipPath></defs></svg>