<?xml version="1.0" encoding="UTF-8"?>
<svg id="Layer_1" xmlns="http://www.w3.org/2000/svg" version="1.1" xmlns:xlink="http://www.w3.org/1999/xlink" viewBox="0 0 107 107">
  <!-- Generator: Adobe Illustrator 29.8.3, SVG Export Plug-In . SVG Version: 2.1.1 Build 3)  -->
  <defs>
    <style>
      .st0 {
        fill: #fff;
      }

      .st1 {
        fill: none;
      }

      .st2 {
        fill: #336799;
      }

      .st3 {
        clip-path: url(#clippath);
      }
    </style>
    <clipPath id="clippath">
      <rect class="st1" x=".67" y=".48" width="105.98" height="105.98"/>
    </clipPath>
  </defs>
  <g class="st3">
    <g>
      <path class="st2" d="M53.66,106.47c29.27,0,52.99-23.73,52.99-52.99S82.93.48,53.66.48.67,24.21.67,53.47s23.73,52.99,52.99,52.99Z"/>
      <path class="st0" d="M45.2,40.39c.67-.43,1.73-.81,2.99-.16l.43.24c.43.24.82.51,1.17.79,2.27,1.75,5.31,1.75,7.57,0,.35-.27.74-.54,1.18-.79l.43-.24c.85-.43,1.71-.46,2.56-.07,1.21.55,2.16,1.83,2.54,3.43.34,1.43,1.77,2.3,3.2,1.95,1.42-.34,2.3-1.78,1.95-3.2-.76-3.16-2.82-5.78-5.49-7.01-2.34-1.07-4.89-1.01-7.19.17-.22.11-.45.24-.66.36-.65.37-1.24.78-1.78,1.19-.37.29-.71.28-1.07,0-.54-.42-1.13-.82-1.78-1.19-.22-.13-.45-.25-.67-.36-2.68-1.38-5.69-1.23-8.26.41-3.09,1.97-4.91,5.73-4.75,10,.09,2.02.51,3.98,1.24,5.84.29.75.64,1.47,1.03,2.16-.37,2.11-.54,5.02.22,8.28.85,3.68,2.53,6.27,3.79,7.81.53.65,1.18,1.12,1.93,1.42,1.4.55,2.99.35,4.23-.52,1.39-.98,2.2-2.64,2.15-4.43-.06-2.11.3-3.78.98-4.57.08-.09.26-.3.41-.43.15.13.33.34.41.43.68.79,1.04,2.46.98,4.57-.05,1.8.75,3.46,2.15,4.43.78.55,1.69.83,2.6.83.55,0,1.1-.1,1.63-.31.74-.29,1.41-.78,1.93-1.42,1.26-1.53,2.94-4.13,3.79-7.81.77-3.34.58-6.31.19-8.44.21-.5.5-1.24.9-2.36.5-1.38-.22-2.9-1.6-3.4-1.38-.5-2.9.22-3.4,1.6-.66,1.83-.91,2.35-.9,2.35,0,0,0,0,0,0-.41.61-.54,1.36-.38,2.07.37,1.6.67,4.11,0,6.99-.39,1.68-1.01,3.04-1.64,4.09-.13-2.84-.89-5.07-2.25-6.66-.5-.58-2.03-2.36-4.43-2.36s-3.93,1.77-4.44,2.36c-1.36,1.58-2.11,3.8-2.25,6.65-.63-1.05-1.24-2.41-1.63-4.09-.67-2.89-.37-5.39,0-6.98.16-.71.03-1.45-.37-2.06-.44-.66-.81-1.38-1.11-2.15-.52-1.31-.81-2.7-.88-4.26-.1-2.65,1.13-4.4,2.31-5.16Z"/>
      <path class="st0" d="M87.8,29.06c-.08-1.06-.79-1.96-1.8-2.3l-31.65-10.62c-.55-.18-1.14-.18-1.69,0l-15.83,5.31c-1.39.47-2.14,1.97-1.67,3.36.47,1.39,1.97,2.13,3.36,1.67l14.98-5.03,29.11,9.77c.31,6.54.2,24.96-9.54,39.01-.83,1.21-.53,2.86.67,3.69.46.32.99.47,1.51.47.84,0,1.67-.4,2.18-1.14,11.86-17.12,10.7-39.81,10.35-44.19Z"/>
      <path class="st0" d="M66.39,77.68c-3.75,3.21-8.08,5.63-12.88,7.19-4.8-1.57-9.13-3.98-12.88-7.19-16.35-14-16.63-38.41-16.23-46.46l6.07-2.04c1.39-.47,2.14-1.97,1.67-3.36-.47-1.39-1.96-2.13-3.36-1.67l-7.76,2.6c-1.01.34-1.72,1.25-1.8,2.3-.47,5.83-1.79,35.74,17.96,52.66,4.51,3.86,9.75,6.72,15.56,8.49.25.07.51.11.77.11s.52-.04.77-.11c5.82-1.77,11.05-4.62,15.56-8.49,1.11-.95,1.24-2.63.29-3.74-.95-1.12-2.63-1.24-3.74-.29Z"/>
    </g>
  </g>
</svg>