<?xml version="1.0" encoding="UTF-8"?>
<svg id="Layer_1" xmlns="http://www.w3.org/2000/svg" version="1.1" xmlns:xlink="http://www.w3.org/1999/xlink" viewBox="0 0 106 107">
  <!-- Generator: Adobe Illustrator 29.8.3, SVG Export Plug-In . SVG Version: 2.1.1 Build 3)  -->
  <defs>
    <style>
      .st0 {
        fill: #fff;
      }

      .st1 {
        fill: none;
      }

      .st2 {
        fill: #336799;
      }

      .st3 {
        clip-path: url(#clippath);
      }
    </style>
    <clipPath id="clippath">
      <rect class="st1" y=".5" width="105.98" height="105.98"/>
    </clipPath>
  </defs>
  <g class="st3">
    <g>
      <path class="st2" d="M52.99,106.49c29.27,0,52.99-23.73,52.99-52.99S82.26.5,52.99.5,0,24.23,0,53.49s23.73,52.99,52.99,52.99Z"/>
      <path class="st0" d="M77.29,54.59c1.64-2.54,3.5-6.34,4.25-11.34.21-1.42-.77-2.75-2.19-2.97-1.41-.19-2.75.77-2.97,2.19-.74,4.91-2.83,8.42-4.01,10.07-.44.62-.59,1.41-.41,2.15.77,3.11,1.4,8,0,13.62-1.31,5.27-3.87,8.96-5.78,11.13-.18.2-.38.34-.6.43-.49.18-.88,0-1.13-.17-.49-.36-.77-.98-.75-1.68.17-5.96-1.13-10.49-3.86-13.45-.87-.94-3.18-3.45-6.65-3.45s-5.79,2.51-6.65,3.45c-2.74,2.96-4.04,7.49-3.86,13.45.02.7-.26,1.32-.75,1.68-.25.18-.64.35-1.14.17-.22-.08-.42-.22-.6-.42-1.6-1.82-3.01-3.99-4.07-6.27-.6-1.3-2.15-1.88-3.46-1.27-1.31.6-1.88,2.15-1.27,3.46,1.29,2.78,2.93,5.31,4.9,7.53.76.86,1.67,1.49,2.71,1.87,2.02.75,4.2.44,5.97-.84,1.9-1.37,2.99-3.64,2.92-6.06-.09-3.13.26-7.36,2.48-9.76.53-.57,1.63-1.77,2.82-1.77s2.29,1.19,2.82,1.77c2.22,2.4,2.57,6.63,2.48,9.76-.07,2.43,1.02,4.69,2.92,6.06,1.14.82,2.44,1.24,3.76,1.24.74,0,1.48-.13,2.21-.4,1.04-.38,1.96-1.01,2.72-1.87,2.3-2.6,5.37-7.03,6.93-13.32,1.49-6,1.04-11.3.26-14.98Z"/>
      <path class="st0" d="M24.52,39.99l.02.33c.17,3.44.93,6.8,2.27,9.96.63,1.5,1.4,2.95,2.28,4.31-.63,3.03-1.09,7.33-.29,12.27.21,1.28,1.31,2.19,2.57,2.19.14,0,.28-.01.42-.03,1.42-.23,2.39-1.57,2.16-2.99-.76-4.74-.17-8.78.47-11.34.18-.74.04-1.51-.4-2.14-.95-1.34-1.75-2.79-2.4-4.31-1.1-2.6-1.72-5.35-1.88-8.43-.18-4.63,1.77-8.75,5.22-11.03,2.75-1.82,6.01-2.06,8.93-.66.32.15.64.32.97.49.88.47,1.75,1.02,2.59,1.62,3.49,2.51,8.01,2.51,11.49,0,.84-.61,1.72-1.15,2.59-1.62.33-.18.65-.34.97-.49,2.47-1.18,5.19-1.19,7.66-.05,2.95,1.38,5.16,4.15,6.06,7.63.36,1.4,1.79,2.24,3.18,1.87,1.39-.36,2.23-1.79,1.87-3.18-1.3-4.98-4.54-9.01-8.91-11.04-3.91-1.82-8.21-1.8-12.12.07-.38.19-.78.38-1.18.6-1.08.58-2.14,1.25-3.17,1.99-1.66,1.2-3.73,1.2-5.4,0-1.03-.74-2.09-1.41-3.17-1.99-.4-.21-.79-.41-1.18-.6-4.6-2.2-9.73-1.83-14.05,1.01-4.99,3.29-7.82,9.12-7.57,15.56Z"/>
      <path class="st0" d="M51.66,45.33h2.52v5.05h-2.52v-5.05ZM59.23,42.8c0-1.4-1.13-2.52-2.52-2.52h-7.57c-1.4,0-2.52,1.13-2.52,2.52v10.1c0,1.4,1.13,2.52,2.52,2.52h7.57c1.4,0,2.52-1.13,2.52-2.52v-10.1Z"/>
      <path class="st0" d="M18,48.13c0,1.18,1.16,2.14,2.6,2.14h26.04c1.44,0,2.6-.96,2.6-2.14s-1.16-2.14-2.6-2.14h-26.04c-1.44,0-2.6.96-2.6,2.14Z"/>
      <path class="st0" d="M56.35,47.85c0,1.18,1.16,2.14,2.6,2.14h26.04c1.44,0,2.6-.96,2.6-2.14s-1.16-2.14-2.6-2.14h-26.04c-1.44,0-2.6.96-2.6,2.14Z"/>
    </g>
  </g>
</svg>