<?xml version="1.0" encoding="UTF-8"?>
<svg id="Layer_1" xmlns="http://www.w3.org/2000/svg" version="1.1" xmlns:xlink="http://www.w3.org/1999/xlink" viewBox="0 0 107 107">
  <!-- Generator: Adobe Illustrator 29.8.3, SVG Export Plug-In . SVG Version: 2.1.1 Build 3)  -->
  <defs>
    <style>
      .st0 {
        fill: #fff;
      }

      .st1 {
        fill: none;
      }

      .st2 {
        fill: #336799;
      }

      .st3 {
        clip-path: url(#clippath);
      }
    </style>
    <clipPath id="clippath">
      <rect class="st1" x=".33" y=".5" width="105.98" height="105.98"/>
    </clipPath>
  </defs>
  <g class="st3">
    <g>
      <path class="st2" d="M53.32,106.49c29.27,0,52.99-23.73,52.99-52.99S82.59.5,53.32.5.33,24.23.33,53.49s23.73,52.99,52.99,52.99Z"/>
      <path class="st0" d="M53.5,70.29c-6.79,0-12.32-5.53-12.32-12.32h4.93v4.93c0,1.36,1.1,2.46,2.46,2.46h9.86c1.36,0,2.46-1.1,2.46-2.46v-4.93h4.93c0,6.79-5.53,12.32-12.32,12.32ZM55.96,60.43h-4.93v-2.46h4.93v2.46ZM68.29,53.04h-29.57c-1.36,0-2.46,1.1-2.46,2.46v2.46c0,9.51,7.74,17.25,17.25,17.25s17.25-7.74,17.25-17.25v-2.46c0-1.36-1.1-2.46-2.46-2.46Z"/>
      <path class="st0" d="M66.76,75.5c-.71.56-1.45,1.08-2.21,1.54-3.34,2.03-7.16,3.1-11.04,3.1-12.23,0-22.18-10.5-22.18-23.41,0-.38,0-.75.03-1.12.06-1.36-.99-2.51-2.35-2.57-.37-.02-.72.07-1.05.22l-.32-.55c-.19.11-.4.19-.62.25-1.46.38-3.08-.82-3.08-2.39,0-1.36,1.11-2.46,2.46-2.46.43,0,.86.11,1.23.33.15.09.29.19.42.31.12.1.26.15.38.22.28.42.67.79,1.18.97.27.1.55.14.83.14,1.01,0,1.96-.63,2.32-1.64l.19-.51c.16-.43.34-.85.53-1.27.64-1.41,1.42-2.76,2.32-4.02.79-1.11.54-2.65-.57-3.44-1.11-.79-2.65-.54-3.44.57-.92,1.29-1.71,2.67-2.41,4.1-.94-.42-1.94-.69-2.98-.69-4.08,0-7.39,3.32-7.39,7.39s3.32,7.39,7.39,7.39c.02,0,.04,0,.06,0,.62,15.06,12.5,27.11,27.05,27.11,4.78,0,9.49-1.32,13.6-3.82.93-.56,1.85-1.2,2.72-1.89,1.07-.84,1.25-2.39.41-3.46-.84-1.07-2.39-1.25-3.46-.4Z"/>
      <path class="st0" d="M80.61,43.18c-1.03,0-2.03.27-2.97.69-3.05-6.24-8.2-11-14.28-13.5v-4.44c0-1.36-1.1-2.46-2.46-2.46s-2.46,1.1-2.46,2.46v2.96c-.81-.16-1.63-.28-2.46-.36v-5.06c0-1.36-1.1-2.46-2.46-2.46s-2.46,1.1-2.46,2.46v5.05c-.83.08-1.65.2-2.46.36v-2.95c0-1.36-1.1-2.46-2.46-2.46s-2.46,1.1-2.46,2.46v4.41c-2.28.93-4.45,2.18-6.45,3.75-1.07.84-1.25,2.39-.41,3.46.49.62,1.21.94,1.94.94.53,0,1.07-.17,1.52-.53,3.85-3.04,8.44-4.64,13.26-4.64,8.5,0,16.36,5.23,20.03,13.34.19.42.36.84.53,1.27l.19.51c.36,1.01,1.31,1.64,2.32,1.64.27,0,.55-.05.83-.14.52-.18.9-.55,1.18-.97.13-.08.27-.12.38-.22.13-.12.27-.22.41-.3.37-.22.8-.33,1.23-.33,1.36,0,2.46,1.1,2.46,2.46,0,1.57-1.62,2.76-3.08,2.39-.22-.06-.43-.14-.62-.26-1.18-.68-2.68-.28-3.36.9-.27.47-.33.98-.27,1.48-.03.17-.09.34-.08.52.02.37.03.75.03,1.12,0,5.14-1.55,10.01-4.47,14.09-.79,1.11-.54,2.65.57,3.44.43.31.94.46,1.43.46.77,0,1.53-.36,2.01-1.03,3.29-4.6,5.11-10.02,5.34-15.73.02,0,.03,0,.05,0,4.08,0,7.39-3.32,7.39-7.39s-3.32-7.39-7.39-7.39Z"/>
    </g>
  </g>
</svg>