<?xml version="1.0" encoding="UTF-8"?>
<svg id="Layer_1" xmlns="http://www.w3.org/2000/svg" version="1.1" xmlns:xlink="http://www.w3.org/1999/xlink" viewBox="0 0 107 107">
  <!-- Generator: Adobe Illustrator 29.8.3, SVG Export Plug-In . SVG Version: 2.1.1 Build 3)  -->
  <defs>
    <style>
      .st0 {
        fill: #fff;
      }

      .st1 {
        fill: none;
      }

      .st2 {
        fill: #336799;
      }

      .st3 {
        clip-path: url(#clippath);
      }
    </style>
    <clipPath id="clippath">
      <rect class="st1" x=".67" y=".5" width="105.98" height="105.98"/>
    </clipPath>
  </defs>
  <g id="Implant-new-icon.svg">
    <g class="st3">
      <g id="Implant-new-icon.svg_2">
        <g id="Layer_11" data-name="Layer_1">
          <path id="Vector" class="st2" d="M53.66,106.49c29.27,0,52.99-23.73,52.99-52.99S82.93.5,53.66.5.67,24.23.67,53.49s23.73,52.99,52.99,52.99Z"/>
          <g id="Group_10">
            <g id="g122">
              <path id="path124" class="st0" d="M59.84,71.53l-12.28,2.27-1-5.12,14.32-2.4-1.04,5.25ZM58.24,79.62c-.4,2.02-2.41,3.49-4.77,3.49s-4.37-1.47-4.77-3.48l-.14-.72,10.19-1.88-.51,2.59ZM81.97,38.55c.22-1.42-.75-2.75-2.17-2.97-1.4-.23-2.75.75-2.97,2.17-.69,4.42-2.57,7.63-3.77,9.31-7.52,3.96-14.7,4.81-19.41,4.81-1.17,0-2.3-.05-3.4-.14-1.45-.12-2.69.95-2.81,2.38-.12,1.43.95,2.69,2.38,2.81,1.23.1,2.51.16,3.82.16,2.53,0,5.72-.23,9.26-.94l-.93,4.69-16.4,2.75-2.05-10.53c-.03-.15-.11-.27-.17-.4.03-1.14-.65-2.22-1.8-2.57-2.53-.77-4.98-1.78-7.3-3-.85-1.2-1.59-2.47-2.18-3.81-1.09-2.48-1.71-5.1-1.86-8.04-.18-4.27,1.68-8.14,4.95-10.34,2.82-1.89,6.18-2.18,9.21-.79.32.15.65.31.97.47.88.46,1.75.98,2.59,1.56,3.46,2.4,7.94,2.4,11.4,0,.84-.58,1.71-1.11,2.59-1.56.32-.17.65-.32.97-.47,2.55-1.17,5.34-1.16,7.87.03,2.86,1.34,5,3.96,5.87,7.2.37,1.39,1.8,2.21,3.19,1.83,1.39-.38,2.21-1.81,1.83-3.19-1.28-4.72-4.44-8.57-8.69-10.56-3.94-1.85-8.29-1.86-12.26-.04-.39.18-.78.37-1.18.58-1.08.56-2.14,1.2-3.16,1.91-1.68,1.17-3.78,1.17-5.47,0-1.02-.71-2.09-1.35-3.17-1.91-.4-.2-.79-.4-1.18-.58-4.65-2.13-9.99-1.69-14.29,1.19-4.8,3.22-7.51,8.78-7.26,14.88,0,0,.01.27.01.28.17,3.34.94,6.58,2.28,9.63.79,1.8,1.78,3.52,2.95,5.11.14.19.35.3.52.44.04.05.11.09.16.14.09.06.16.17.26.22.13.1.23.23.38.31,2.2,1.17,4.53,2.13,6.92,2.94l1.93,9.93-2.93.49c-1.42.24-2.38,1.58-2.14,3,.21,1.27,1.32,2.17,2.57,2.17.14,0,.29-.01.43-.04l3.06-.51,1.01,5.2-3.24.6c-1.41.26-2.35,1.62-2.09,3.03.23,1.25,1.33,2.13,2.56,2.13.16,0,.32-.01.48-.04l3.28-.61.15.78c.89,4.45,5.04,7.69,9.88,7.69s8.99-3.23,9.88-7.69l.92-4.62,4.11-.76c1.41-.26,2.35-1.62,2.09-3.03-.26-1.41-1.61-2.36-3.03-2.09l-2.07.38,1.03-5.16,3.05-.51c1.42-.24,2.38-1.58,2.14-3-.24-1.42-1.57-2.37-3-2.14l-1.1.18.98-4.92c.02-.11,0-.22,0-.33,2.35-.78,4.79-1.77,7.26-3.09.15-.08.25-.21.38-.31.05-.03.09-.08.14-.11.09-.08.21-.14.29-.24.18-.14.38-.24.52-.43,1.78-2.4,4.09-6.41,4.95-11.91Z"/>
            </g>
            <g id="g126">
              <path id="path128" class="st0" d="M59.9,28.94c-2.42,1.81-4.95,2.08-6.25,2.08-3.02,0-5.21-1.31-6.25-2.08-1.15-.86-2.78-.63-3.65.52-.86,1.15-.63,2.78.52,3.65,1.56,1.17,4.84,3.13,9.38,3.13,1.95,0,5.75-.41,9.38-3.13,1.15-.86,1.38-2.49.52-3.65-.86-1.15-2.49-1.39-3.65-.52Z"/>
            </g>
          </g>
        </g>
      </g>
    </g>
  </g>
</svg>