<?xml version="1.0" encoding="UTF-8"?>
<svg id="Layer_1" xmlns="http://www.w3.org/2000/svg" version="1.1" xmlns:xlink="http://www.w3.org/1999/xlink" viewBox="0 0 106 107">
  <!-- Generator: Adobe Illustrator 29.8.3, SVG Export Plug-In . SVG Version: 2.1.1 Build 3)  -->
  <defs>
    <style>
      .st0 {
        fill: #fff;
      }

      .st1 {
        fill: none;
      }

      .st2 {
        fill: #336799;
      }

      .st3 {
        clip-path: url(#clippath);
      }
    </style>
    <clipPath id="clippath">
      <rect class="st1" y=".48" width="105.98" height="105.98"/>
    </clipPath>
  </defs>
  <g class="st3">
    <g>
      <path class="st2" d="M52.99,106.47c29.27,0,52.99-23.73,52.99-52.99S82.26.48,52.99.48,0,24.21,0,53.47s23.73,52.99,52.99,52.99Z"/>
      <path class="st0" d="M58.29,42.8c0,8.74,7.11,15.86,15.86,15.86s15.86-7.11,15.86-15.86c0-3.46-1.1-6.75-3.17-9.52-.54-.71-1.14-1.39-1.79-2-1.06-1.01-2.73-.96-3.73.1-1,1.06-.96,2.73.1,3.73.44.42.84.87,1.2,1.35,1.38,1.84,2.11,4.03,2.11,6.34,0,5.83-4.74,10.57-10.57,10.57s-10.57-4.74-10.57-10.57,4.74-10.57,10.57-10.57c.17,0,.31-.07.47-.09.59.13,1.21.09,1.79-.21,1.29-.68,1.78-2.28,1.1-3.57-1.72-3.24-4.28-5.82-7.4-7.47-1.01-.53-2.07-.96-3.16-1.27-3.68-1.05-7.48-.73-11,.91-.44.21-.89.43-1.32.66-1.21.63-2.4,1.36-3.53,2.15-1.98,1.39-4.45,1.4-6.43,0-1.13-.8-2.31-1.52-3.51-2.15-.44-.23-.89-.45-1.33-.66-5.16-2.4-10.86-1.95-15.66,1.24-5.38,3.59-8.43,9.85-8.15,16.75,0,0,.01.31.01.32.19,3.76,1.04,7.41,2.53,10.85.72,1.66,1.58,3.25,2.58,4.74-.87,4.02-1.39,9.82.28,16.4,1.74,6.85,5.16,11.67,7.72,14.5.82.91,1.8,1.57,2.93,1.97,2.21.79,4.57.45,6.49-.95,2.01-1.46,3.16-3.86,3.09-6.41-.11-3.45.3-8.13,2.83-10.81.67-.71,1.92-2.03,3.39-2.03s2.72,1.32,3.39,2.03c2.53,2.67,2.94,7.35,2.83,10.81-.07,2.56,1.08,4.95,3.09,6.41,1.24.9,2.67,1.36,4.12,1.36.79,0,1.59-.14,2.37-.42,1.13-.4,2.11-1.07,2.93-1.97,2.56-2.83,5.98-7.65,7.73-14.5.56-2.19.91-4.46,1.04-6.75.08-1.46-1.03-2.71-2.49-2.79-1.46-.07-2.71,1.03-2.79,2.49-.11,1.95-.41,3.89-.88,5.75-1.48,5.81-4.36,9.87-6.53,12.27-.23.26-.48.43-.79.54-.73.26-1.31-.04-1.6-.24-.6-.43-.94-1.17-.91-1.98.19-6.49-1.25-11.4-4.28-14.6-.95-1.01-3.48-3.68-7.23-3.68s-6.28,2.68-7.23,3.68c-3.04,3.21-4.48,8.12-4.28,14.6.03.8-.31,1.54-.91,1.98-.28.2-.88.51-1.6.24-.3-.11-.55-.28-.78-.53-2.16-2.4-5.05-6.47-6.53-12.27-1.57-6.19-.87-11.56,0-14.99.19-.76.04-1.57-.42-2.2-1.06-1.46-1.97-3.07-2.71-4.76-1.24-2.86-1.95-5.89-2.1-9.02l-2.64.13,2.63-.41c-.2-5.04,1.96-9.58,5.8-12.14,3.22-2.15,7.05-2.46,10.49-.85.36.17.72.34,1.1.54,1.01.53,2,1.13,2.94,1.79,3.8,2.68,8.71,2.67,12.51,0,.94-.66,1.93-1.27,2.95-1.8.36-.19.72-.37,1.08-.54,2.36-1.1,4.89-1.31,7.33-.62.73.21,1.44.5,2.13.86.95.5,1.82,1.15,2.61,1.9-6.86,1.75-11.95,7.96-11.95,15.35Z"/>
      <path class="st0" d="M74.14,50.73c1.46,0,2.64-1.18,2.64-2.64v-2.64h2.64c1.46,0,2.64-1.18,2.64-2.64s-1.18-2.64-2.64-2.64h-2.64v-2.64c0-1.46-1.18-2.64-2.64-2.64s-2.64,1.18-2.64,2.64v2.64h-2.64c-1.46,0-2.64,1.18-2.64,2.64s1.18,2.64,2.64,2.64h2.64v2.64c0,1.46,1.18,2.64,2.64,2.64Z"/>
    </g>
  </g>
</svg>