<?xml version="1.0" encoding="UTF-8"?>
<svg id="Layer_1" xmlns="http://www.w3.org/2000/svg" version="1.1" xmlns:xlink="http://www.w3.org/1999/xlink" viewBox="0 0 107 107">
  <!-- Generator: Adobe Illustrator 29.8.3, SVG Export Plug-In . SVG Version: 2.1.1 Build 3)  -->
  <defs>
    <style>
      .st0, .st1 {
        fill: #fff;
      }

      .st1 {
        fill-rule: evenodd;
      }

      .st2 {
        fill: none;
      }

      .st3 {
        fill: #336799;
      }

      .st4 {
        clip-path: url(#clippath);
      }
    </style>
    <clipPath id="clippath">
      <rect class="st2" x=".33" y=".48" width="105.98" height="105.98"/>
    </clipPath>
  </defs>
  <g class="st4">
    <g>
      <path class="st3" d="M53.32,106.47c29.27,0,52.99-23.73,52.99-52.99S82.59.48,53.32.48.33,24.21.33,53.47s23.73,52.99,52.99,52.99Z"/>
      <path class="st1" d="M84.83,24.55c1.24,0,2.25,1.01,2.25,2.25,0,5.88,4.79,10.65,10.7,10.65,1.24,0,2.25,1.01,2.25,2.25s-1.01,2.25-2.25,2.25c-5.91,0-10.7,4.78-10.7,10.66,0,1.24-1.01,2.25-2.25,2.25s-2.25-1.01-2.25-2.25c0-5.88-4.78-10.66-10.69-10.66-1.24,0-2.25-1.01-2.25-2.25s1.01-2.25,2.25-2.25c5.91,0,10.69-4.78,10.69-10.65,0-1.24,1.01-2.25,2.25-2.25ZM84.83,34.75c-1.25,2.02-2.95,3.72-4.97,4.96,2.02,1.24,3.73,2.95,4.97,4.96,1.25-2.02,2.95-3.72,4.98-4.96-2.02-1.24-3.73-2.95-4.98-4.96Z"/>
      <path class="st0" d="M72.64,56.73c1.7-2.62,3.62-6.56,4.4-11.73.22-1.47-.8-2.85-2.27-3.07-1.46-.19-2.85.8-3.07,2.27-.76,5.08-2.93,8.71-4.15,10.42-.46.64-.61,1.45-.42,2.22.8,3.22,1.45,8.28,0,14.1-1.35,5.45-4,9.27-5.98,11.52-.19.21-.39.35-.62.44-.5.18-.91,0-1.17-.18-.51-.37-.8-1.02-.78-1.74.18-6.17-1.17-10.86-4-13.92-.9-.98-3.29-3.57-6.88-3.57s-5.99,2.59-6.88,3.57c-2.83,3.06-4.18,7.75-4,13.92.02.72-.27,1.37-.78,1.74-.26.18-.66.36-1.18.18-.23-.08-.43-.23-.62-.44-1.66-1.88-3.12-4.12-4.21-6.49-.62-1.35-2.23-1.95-3.58-1.32-1.35.62-1.94,2.23-1.32,3.58,1.33,2.88,3.04,5.5,5.07,7.8.79.89,1.73,1.54,2.81,1.93,2.1.77,4.35.46,6.18-.86,1.97-1.42,3.1-3.76,3.03-6.28-.09-3.24.27-7.62,2.57-10.1.55-.59,1.69-1.83,2.92-1.83s2.37,1.24,2.92,1.83c2.3,2.48,2.66,6.86,2.57,10.1-.07,2.51,1.06,4.86,3.03,6.28,1.18.85,2.52,1.28,3.89,1.28.76,0,1.54-.13,2.29-.41,1.08-.4,2.03-1.05,2.81-1.94,2.38-2.7,5.56-7.28,7.17-13.79,1.54-6.21,1.07-11.69.27-15.5Z"/>
      <path class="st0" d="M18.02,41.62l.02.34c.18,3.57.97,7.03,2.35,10.31.65,1.55,1.44,3.05,2.36,4.46-.66,3.13-1.13,7.59-.3,12.7.21,1.33,1.36,2.27,2.66,2.27.14,0,.29-.01.43-.03,1.47-.24,2.47-1.62,2.23-3.09-.79-4.9-.17-9.09.48-11.73.19-.76.04-1.57-.42-2.21-.98-1.38-1.82-2.88-2.48-4.46-1.14-2.69-1.78-5.54-1.94-8.73-.19-4.79,1.83-9.06,5.4-11.41,2.85-1.88,6.22-2.13,9.24-.69.33.16.67.33,1,.51.91.49,1.81,1.05,2.68,1.68,3.61,2.6,8.29,2.6,11.89,0,.87-.63,1.78-1.19,2.68-1.68.34-.18.68-.35,1-.51,2.56-1.22,5.38-1.24,7.93-.05,3.05,1.42,5.34,4.3,6.28,7.89.38,1.44,1.85,2.31,3.29,1.93,1.44-.37,2.31-1.85,1.93-3.29-1.34-5.16-4.7-9.32-9.22-11.43-4.05-1.89-8.49-1.86-12.55.08-.4.19-.8.4-1.22.62-1.11.6-2.22,1.29-3.28,2.06-1.72,1.24-3.86,1.24-5.59,0-1.06-.76-2.16-1.46-3.28-2.06-.41-.22-.81-.42-1.22-.62-4.77-2.28-10.07-1.9-14.54,1.05-5.17,3.41-8.09,9.44-7.83,16.1Z"/>
    </g>
  </g>
</svg>