<svg xmlns="http://www.w3.org/2000/svg" id="Layer_2" data-name="Layer 2" viewBox="0 0 316.21 73.2"><defs><style>      .cls-1 {        fill: #ebc67d;      }      .cls-2 {        fill: #fff;      }      .cls-3 {        fill: #686868;      }      .cls-4 {        fill: #901917;      }      .cls-5 {        fill: #c3a784;      }    </style></defs><g id="Layer_1-2" data-name="Layer 1"><g><g><path class="cls-1" d="m50.83,0c.67,0,1.28.4,1.95.44.87.06,1.84.28,2.36,1.06.54.86,1.41,1.57,1.54,2.64.23,2.54-.26,5.09-1.03,7.51-.53,1.7-1.32,3.31-1.82,5.02-.15.51-.16,1.04-.18,1.57,3.75,0,7.49,0,11.24,0,1.6,0,3.21.03,4.81-.06.73-.09,1.43-.39,2.18-.34,1,.06,2.04-.15,3.01.19,2.61.8,5.22,1.57,7.83,2.35.73.22,1.48.39,2.14.77,1.66.96,3.31,1.91,4.91,2.96.6.41,1.24.8,1.72,1.36.27.25.11.64.08.96-.21,1.19-1.12,2.09-2.04,2.78-1.77,1.31-3.81,2.21-5.84,3.05-.6.3-1.27.08-1.9-.02-1.96-.33-3.91-.67-5.87-.99-1.06-.16-1.98-.72-2.96-1.12-.7-.32-1.49-.24-2.24-.3-1.51-.1-3.03-.15-4.54-.28-1.27-.24-2.57-.03-3.85.03-1.4.08-2.76.51-4.14.7-1.94.08-3.89,0-5.84.04-.65,0-1.15.49-1.56.93-1.98,2.24-3,5.1-4.52,7.63.31.43.65.85,1.14,1.08.86.41,1.83.53,2.76.66.54.04,1.25.19,1.61-.34.73-1.01.62-2.36,1.25-3.42.21-.39.69-.42,1.07-.53,2.92-.62,5.69-1.98,8.73-2,4.51.01,9.14.05,13.47,1.49.93.32,2.08.84,2.21,1.95-.02,1.31.08,2.66-.22,3.94-.71,1.52-1.69,2.92-2.9,4.09-1.08,1.07-1.8,2.42-2.53,3.74-.41.76-1.05,1.35-1.68,1.91,1.1.95,2.42,1.56,3.65,2.32.85.52,1.8.84,2.72,1.21,2.99,1.16,6,2.25,9.01,3.36,1.33.48,2.66,1.1,4.1,1.09,4.76,0,9.52,0,14.28,0,.73,0,1.45-.16,2.16-.27.98-.15,1.86-.64,2.75-1.04.7-.31,1.34-.83,2.14-.84-.44.37-.9.71-1.3,1.12.55-.35,1.06-.75,1.65-1.04-.16.39-.37.76-.63,1.1.6-.34,1.22-.65,1.77-1.05.54-.4,1.2-.55,1.85-.63-.89,1.07-2.2,1.68-3.05,2.79.38-.25.75-.53,1.1-.83-.01.1-.03.3-.04.4,1.05-.83,2.12-1.64,3.3-2.28-.47.74-1.1,1.37-1.76,1.94-1.13,1.01-2.04,2.24-3,3.4-.36.41-.61.9-.81,1.4.04.11.09.21.13.32-.17.14-.34.28-.51.42.09.04.26.12.35.16-.45.91-1.22,1.62-1.6,2.57-.15.4-.56.57-.9.78.14.04.41.12.55.16-.27.03-.54.07-.8.1-.33.73-.94,1.26-1.5,1.81-.22.24-.55.33-.85.42-.05.12-.1.23-.15.35-.51.35-.92.83-1.41,1.2-1.97.81-4.28.03-6.17,1.12-.29.18-.63.24-.96.17-1.73-.2-3.37-.87-4.9-1.66-1.33-.69-2.41-1.79-3.84-2.29-.64-.27-1.26-.6-1.91-.83-.89-.32-1.72-.8-2.66-.97-1.13-.21-2.23-.59-3.21-1.18-1.05-.68-2.34-.78-3.44-1.37-1.09-.59-2.22-1.14-3.24-1.86-1.04-.71-2.03-1.47-3.07-2.17-.65-.43-1.23-1-2.01-1.2-1.09-.34-2.3-.2-3.31.31-1.16.58-2.17,1.41-3.13,2.28-1.68,1.56-3.88,2.36-5.96,3.23-1,.34-1.91.92-2.96,1.11-1.04.16-2.09.37-3.15.25-1.87.07-3.75-.17-5.52-.79-1.9-.58-3.75-1.61-4.9-3.27-.58-.89-1.35-1.71-1.51-2.81.92,1.3,2.1,2.38,3.4,3.27.45.26.97.37,1.43.6.58.28,1.09.66,1.64.98.25-.06.49-.11.74-.16.45.62,1.27.2,1.9.23.44.24.89,0,1.34-.08.47,0,.93.16,1.39.27.02-.12.07-.36.1-.48.27-.1.54-.21.81-.31-.99.23-1.99.5-3.02.43-2.38.13-4.69-.87-6.55-2.29-.71-.79-1.53-1.54-1.94-2.55,1.47,1.42,3.37,2.54,5.47,2.53-.52-.48-1.24-.55-1.88-.78-2.08-.69-3.72-2.32-4.93-4.09-.54-1-.9-2.11-1.11-3.23.46.73.86,1.52,1.44,2.17.76.91,1.75,1.61,2.83,2.08-.3-1.08-1.33-1.66-1.81-2.65.06-.07.18-.21.24-.28.25.3.51.6.77.89.1-.02.3-.06.4-.07.28.26.57.52.86.78.11,0,.22,0,.34-.01.07.11.15.22.22.34.74-.03,1.36.43,2.06.6,1.3.34,2.67.29,4,.16,1.46-.22,2.98-.37,4.28-1.11,1.74-.72,3.52-1.51,4.89-2.84.48-.49.92-1.14.85-1.86-.23-.71-.89-1.13-1.45-1.56-2.9-2-6.18-3.35-9.42-4.67-1.27-.46-2.55-1.06-3.93-1.1-.6-.06-1.03.42-1.45.75-1.95,1.7-3.97,3.31-5.83,5.11-.86.77-1.22,1.9-1.79,2.87-.65,1.48-1.86,2.62-3.18,3.51-1.01.69-2.15,1.17-3.23,1.74-1.04.54-2.06,1.12-3.05,1.75-.6.36-.74,1.11-1.14,1.65-.78,1.06-1.97,1.7-3.14,2.26-2.62,1.23-5.48,1.93-8.36,2.16-1.57.12-3.2.05-4.66-.6-1.94-.91-3.44-2.55-4.56-4.35-1.22-1.88-1.87-4.03-2.83-6.04-.24-.57-.61-1.11-.67-1.73,0-.41.45-.41.75-.4,2.14.1,4.29.2,6.44.18,3.08-.06,6.17-.4,9.17-1.11,1.33-.31,2.6-.81,3.82-1.41,1.62-.65,3.08-1.59,4.64-2.37,1.74-.88,3.4-1.91,5.03-2.99,2.3-1.48,4.53-3.1,6.49-5.02,1.42-1.37,2.69-2.93,3.62-4.68.53-.99.81-2.1.86-3.22-1.13.02-2.27.19-3.33.6-1.78.68-3.73.74-5.6.51-.85-.14-1.84-.36-2.3-1.16-.5-.96-.59-2.06-.67-3.12-.11-1.71.02-3.59,1.13-4.99.99-1.19,2.35-2.04,3.77-2.63,1.78-.71,3.64-1.17,5.53-1.48,2.27-.41,4.59-.94,6.58-2.16.36-.21.49-.63.64-.98.39-1.04.81-2.09.96-3.19.1-.56-.2-1.07-.25-1.62-.09-.76.04-1.58-.33-2.29-.44-.93-1.03-1.96-.6-3.01-.66-.73-.86-1.76-.83-2.71.28-1.39,1.34-2.44,2.4-3.3C48.82,1.04,49.78.42,50.83,0Zm13.98,23.31c.95.12,1.9-.04,2.85,0,.89.03,1.82-.03,2.66.36.34-.31.79-.41,1.23-.45-.4-.09-.8-.16-1.2-.23.31-.16.61-.32.91-.5-1.04-.06-2.08-.04-3.12-.05-.1-.09-.21-.17-.31-.25-.88.71-2.1.51-3.02,1.13Zm3.77.67c-.24.2.14.5.31.27.24-.21-.14-.5-.31-.27Zm-5.58.26l.11.24c.2-.05.4-.11.61-.13.3.1.57.28.88.34.38.02.75-.12,1.11-.24.9.2,1.86.09,2.72-.26-1.78-.38-3.63-.13-5.42.04Zm7.4-.14c.01.1.04.31.05.41.21-.05.43-.1.64-.15-.23-.09-.46-.17-.69-.26Zm-1.04.27c.14.12.52.09.54-.13-.14-.13-.52-.09-.54.13Zm1.47,1.42c-.14.11-.19.29-.27.44.56.23,1.13-.14,1.54-.5-.42,0-.85-.02-1.27.06Zm-7.16.42c-1.12.3-2.29.17-3.43.33-.62.05-1.23-.1-1.85-.06.55.22,1.12.39,1.7.51.65.12,1.29-.14,1.94-.05.25.15.45.38.66.58.4-.04.79-.08,1.19-.12-.17-.15-.35-.29-.52-.43-.16.11-.31.22-.47.32-.08-.08-.24-.24-.32-.32.76-.16,1.57-.51,2.33-.16-.26.2-.52.41-.79.6,2.04-.21,4.08-.32,6.12-.51-.2-.18-.41-.35-.63-.51.23-.12.72.19.84-.11-.13-.27-.53-.18-.77-.27-2-.2-4.01.14-6.01.22Zm-3.3,15.21c-.68.17-1.4.34-1.91.85-.33.31-.39.77-.51,1.18,1.24.94,2.67,1.59,3.98,2.42.43.23.85.63,1.38.51.61-.06.99-.64,1.08-1.2.17-.95.3-1.92.22-2.89-.04-.38-.16-.87-.6-.97-1.19-.3-2.45-.16-3.63.1Zm11.08,13.52c.05.06.15.19.2.25.1,0,.2,0,.31.01.3.18.6.35.91.52.16-.1.33-.21.49-.31-.59-.3-1.24-.45-1.91-.48Zm2.47.24c.18.22.36.45.5.7-.35-.13-.7-.28-1.04-.42.93.94,2.2,1.37,3.36,1.94,1.23.59,2.54,1.02,3.75,1.64.88.43,1.87.57,2.71,1.07.99.56,2.15.77,3.08,1.44,0-.2,0-.39,0-.58-.89-.37-1.79-.72-2.68-1.1-.33-.13-.56-.41-.79-.66.02-.07.05-.2.06-.27-.53-.21-1.06-.44-1.6-.63.22.42.61.66,1.09.64.08.13.16.25.24.38-.91-.32-1.93-.46-2.65-1.16.34-.02.68-.03,1.02-.04-2.36-.96-4.7-2-7.06-2.96Zm-1.69,1.44c-.03.24.33.48.55.42.05-.25-.33-.47-.55-.42Zm-1.11.53c.4.32.84.61,1.29.87-.41-.06-.81-.11-1.22-.15.99.57,2.03,1.03,3.06,1.54.32-.14.65-.25.99-.35-.9-.41-1.82-.84-2.55-1.54-.56.06-1.08-.14-1.57-.37Zm1.95,0c.34.33.8.48,1.27.47-.39-.23-.82-.38-1.27-.47Zm1.32.79c-.15.28.47.43.5.13-.05-.21-.36-.28-.5-.13Zm.64.2c1.07.84,2.35,1.34,3.57,1.9.89.37,1.75.82,2.68,1.07l-.23-.26c-.37-.08-.76-.18-1-.5-.46-.56-1.19-.73-1.86-.88-.94-.66-2.05-1.05-3.16-1.33Zm-32.85.38c-.14.13-.08.42.12.46.29-.03.15-.6-.12-.46Zm33.5.81c.42.59.85,1.19,1.36,1.71.46.46,1.1.66,1.67.95.97.44,1.89.98,2.88,1.38-1.36-.96-2.95-1.55-4.3-2.54,1.23.17,2.26.9,3.44,1.22-.28-.33-.62-.61-1.02-.78-.83-.35-1.57-.89-2.41-1.22-.55-.23-1.09-.48-1.63-.73Zm5.09,2.74c.62.38,1.31.64,2.03.74.09.12.17.24.27.36,1.27.34,2.4,1.01,3.6,1.5.35.13.65.5,1.05.38-.86-.42-1.65-.99-2.53-1.36-.63-.21-1.16-.63-1.78-.85-.78-.19-1.48-.59-2.16-1-.16.08-.31.15-.47.23Zm1.86-.32c.31.27.66.5,1.02.7-.29-.3-.63-.55-1.02-.7Zm-36.86.49c-.14.18.14.5.33.34.14-.19-.14-.5-.33-.34Zm39.53.87c.46.25.94.45,1.42.64-.04-.1-.13-.31-.17-.42-.41-.1-.83-.18-1.24-.23Zm-2.33.79c.39.56,1.08.68,1.66.94.49.22.98.46,1.51.59-.38-.31-.83-.51-1.29-.68-.65-.24-1.25-.59-1.89-.85Zm4.78.07c.33.44.85.64,1.37.79-.41-.34-.85-.65-1.37-.79Zm-.04,1.28c.54.3,1.08.59,1.64.86-.12-.73-1-1-1.64-.86Zm-.44.69c.56.47,1.27.7,1.93.97-.6-.41-1.24-.76-1.93-.97Z"></path><path class="cls-1" d="m69.11,22.62c.38.08.76.22,1.09.43-.41,0-.81-.11-1.09-.43Z"></path><path class="cls-1" d="m68.24,26.66c.11-.44.6-.31.93-.24-.12.16-.23.31-.34.47-.19-.08-.39-.15-.58-.23Z"></path><path class="cls-1" d="m65.35,26.48c.91.03,1.82-.01,2.72.08,0,.03-.02.09-.03.11-.98.09-1.93.35-2.92.37.07-.19.15-.38.23-.56Z"></path><path class="cls-1" d="m39.35,54.86c.17.22.34.44.5.66-.06.1-.17.29-.23.39-.1-.35-.19-.7-.27-1.05Z"></path><path class="cls-1" d="m74.95,56.07c.48-.15.89.12,1.2.46-.47.1-.88-.14-1.2-.46Z"></path><path class="cls-1" d="m76.06,56.54c1.24.4,2.49.79,3.66,1.36-.14.09-.29.19-.43.29-1.08-.56-2.18-1.05-3.24-1.65Z"></path><path class="cls-1" d="m72.61,58.09c.42.17.78.45,1.04.83-.4-.21-.75-.49-1.04-.83Z"></path></g><g><path class="cls-4" d="m116.65,20.34c0-4.7-3.78-8.52-8.43-8.52s-8.43,3.81-8.43,8.52,3.77,8.52,8.43,8.52,8.43-3.81,8.43-8.52Z"></path><path class="cls-2" d="m113.32,19.36c-.68,1.77-1.1,3.58-1.3,5.47-.05.5-.25,1.01-.45,1.48-.29.67-.91.77-1.28.15-.42-.67-.68-1.45-1-2.19-.18-.43-.3-.88-.52-1.29-.3-.53-.75-.53-1.05,0-.23.4-.36.85-.54,1.29-.25.64-.5,1.29-.77,1.92-.07.16-.19.29-.31.41-.37.37-.88.34-1.08-.13-.28-.67-.57-1.37-.63-2.08-.37-2.25-.58-3.27-1.17-4.84-.4-1.06-.48-2.15-.21-3.27.32-1.32,1.27-1.99,2.61-1.82.64.09,1.28.27,1.92.27,1.79.15,2.85-.3,4.17-.24.88.08,1.41.65,1.67,1.46.17.53.44,2.17-.04,3.41Z"></path><path class="cls-4" d="m111.44,20.22c0,.29-.13.44-.39.47-.29,0-.56.02-.83.07-.7.09-1.29.2-1.78.33-.49.11-.74.18-.74.2-.15.42-.36.78-.65,1.07-.29.29-.45.44-.48.47-.64.27-1,.37-1.09.3-.12-.09-.05-.25.21-.5.12-.2.22-.29.31-.27.06.02.1.05.13.07.12-.07.25-.21.39-.43.12-.22.19-.34.22-.37-.23.06-.44.13-.61.2s-.26.11-.26.13c-.23.06-.45.04-.65-.07-.17-.11-.3-.2-.39-.27-.26-.27-.32-.44-.17-.54.12-.07.26-.11.43-.13.32-.06.67-.18,1.04-.33.38-.18.78-.42,1.22-.73.06-.11.03-.16-.09-.13-.12.02-.26.11-.44.27-.23.13-.45.19-.65.17-.2-.02-.36-.12-.48-.3-.06-.27-.04-.46.05-.57.06-.14.16-.19.3-.17.09-.09.2-.19.35-.3.14-.11.23-.17.26-.17-.17-.29-.3-.65-.39-1.07-.09-.42-.13-.64-.13-.67-.29-.4-.3-.63-.04-.7.29-.07.71-.01,1.26.17.38.13.54.29.48.47-.06.18-.07.38-.04.6.06,0,.09-.05.09-.13s.09-.13.26-.13c.09-.11.15-.22.17-.33l.09-.13c-.37-.02-.62-.13-.74-.33-.14-.22-.04-.33.31-.33.41-.04.71-.11.91-.2.23-.11.54-.09.91.07.44.15.64.33.61.53-.06.18-.17.31-.35.4-.09.04-.19.12-.3.23-.14.13-.22.21-.22.23.2.2.23.37.09.5-.14.11-.38.14-.69.1-.35.05-.61.09-.78.13-.17.02-.32.09-.43.2,0,.09.04.11.13.06.09-.04.19.07.3.33.41-.18.75-.3,1.04-.37.26-.05.52.03.78.23.2.18.12.4-.26.67-.38.27-.78.51-1.22.73.06.05.29.02.7-.06.41-.09.81-.18,1.22-.27.14-.04.33,0,.56.13.23.13.39.29.48.47Zm-3.91-1.34c-.2,0-.38.02-.52.07-.15.02-.23,0-.26-.07-.15.07-.25.12-.31.17-.06.05-.07.08-.04.1.23-.02.46-.07.7-.13.26-.09.4-.13.44-.13Zm.7.33c-.09,0-.15.03-.18.1-.03.04-.03.08,0,.1.06-.05.1-.09.13-.13l.04-.07Zm2.78,3.07c.23.56.18.88-.17.97-.35.11-.61.03-.78-.23-.17-.22-.29-.44-.35-.67-.09-.22-.12-.33-.09-.33-.09-.37.03-.53.35-.47.32.07.67.31,1.04.73Z"></path></g><g><path class="cls-3" d="m132.92,23.25v5.02h9.43v4.85h-9.43v9.46h-5.81v-24.36h16.03v5.02h-10.22Z"></path><path class="cls-3" d="m159.96,42.59l-5.26-9.67h-2v9.67h-5.78v-24.36h9.29c4.68,0,9.33,1.79,9.33,7.36,0,3.27-1.93,5.61-5.06,6.57l6.37,10.43h-6.88Zm-4.16-19.61h-3.13v5.68h2.79c1.89,0,4.27-.48,4.27-2.96,0-2.27-2.17-2.72-3.92-2.72Z"></path><path class="cls-3" d="m169.73,42.59v-24.36h5.92v24.36h-5.92Z"></path><path class="cls-3" d="m180.67,42.59v-24.36h16.38v4.99h-10.7v4.58h10.12v4.71h-10.12v5.06h11.32v5.02h-17Z"></path><path class="cls-3" d="m217.04,42.59l-9.81-15.93h-.1l.14,15.93h-5.71v-24.36h6.71l9.77,15.9h.1l-.14-15.9h5.71v24.36h-6.67Z"></path><path class="cls-3" d="m237.81,42.59h-9.08v-24.36h8.81c6.92,0,13.94,2.89,13.94,12.11,0,8.57-6.95,12.25-13.66,12.25Zm-.41-19.34h-2.92v14.24h2.79c4.2,0,8.09-1.72,8.09-7.16s-3.89-7.09-7.95-7.09Z"></path><path class="cls-3" d="m255.36,42.59v-24.36h5.92v19.23h9.43v5.13h-15.35Z"></path><path class="cls-3" d="m282.64,32.27v10.32h-5.88v-10.32l-9.15-14.04h7.12l5.19,9.01,5.2-9.01h6.88l-9.36,14.04Z"></path></g><g><path class="cls-5" d="m132.59,67.13h-6.27v-16.8h6.08c4.77,0,9.61,1.99,9.61,8.35,0,5.91-4.79,8.45-9.42,8.45Zm-.28-13.34h-2.02v9.83h1.92c2.9,0,5.58-1.19,5.58-4.94s-2.68-4.89-5.48-4.89Z"></path><path class="cls-5" d="m144.69,67.13v-16.8h11.3v3.44h-7.38v3.16h6.98v3.25h-6.98v3.49h7.81v3.47h-11.73Z"></path><path class="cls-5" d="m169.77,67.13l-6.76-10.99h-.07l.09,10.99h-3.94v-16.8h4.63l6.74,10.97h.07l-.09-10.97h3.94v16.8h-4.6Z"></path><path class="cls-5" d="m185.02,53.79v13.34h-4.06v-13.34h-4.75v-3.47h13.55v3.47h-4.75Z"></path><path class="cls-5" d="m201.58,67.13l-1.31-3.3h-6.5l-1.24,3.3h-4.41l7.05-16.8h3.94l6.98,16.8h-4.51Zm-4.51-12.32l-2.14,5.77h4.22l-2.09-5.77Z"></path><path class="cls-5" d="m207.48,67.13v-16.8h4.08v13.27h6.5v3.54h-10.59Z"></path><path class="cls-5" d="m233.58,67.58c-5.17,0-9.04-3.61-9.04-8.88s3.99-8.83,9.11-8.83c2.35,0,4.89.85,6.29,2.47l-2.75,2.75c-.76-1.04-2.11-1.54-3.39-1.54-2.82,0-4.84,2.18-4.84,5.15s1.97,5.15,4.77,5.15c1.59,0,2.85-.71,3.56-1.71l2.82,2.66c-1.47,1.71-3.7,2.78-6.53,2.78Z"></path><path class="cls-5" d="m241.84,67.13v-16.8h11.3v3.44h-7.38v3.16h6.98v3.25h-6.98v3.49h7.81v3.47h-11.73Z"></path><path class="cls-5" d="m266.91,67.13l-6.76-10.99h-.07l.09,10.99h-3.94v-16.8h4.63l6.74,10.97h.07l-.09-10.97h3.94v16.8h-4.61Z"></path><path class="cls-5" d="m282.17,53.79v13.34h-4.06v-13.34h-4.75v-3.47h13.55v3.47h-4.75Z"></path><path class="cls-5" d="m297.75,67.13l-3.63-6.67h-1.38v6.67h-3.99v-16.8h6.41c3.23,0,6.43,1.23,6.43,5.08,0,2.25-1.33,3.87-3.49,4.53l4.39,7.19h-4.75Zm-2.87-13.53h-2.16v3.92h1.92c1.3,0,2.94-.33,2.94-2.04,0-1.57-1.49-1.87-2.71-1.87Z"></path><path class="cls-5" d="m304.49,67.13v-16.8h11.3v3.44h-7.38v3.16h6.98v3.25h-6.98v3.49h7.81v3.47h-11.73Z"></path></g></g></g></svg>